<?xml version="1.0" encoding="UTF-8" standalone="no"?>
<svg
   viewBox="0 0 36 36"
   version="1.1"
   id="svg1"
   sodipodi:docname="negative_king.svg"
   inkscape:version="1.3.2 (091e20e, 2023-11-25, custom)"
   inkscape:export-filename="negative_king.png"
   inkscape:export-xdpi="341.33334"
   inkscape:export-ydpi="341.33334"
   xmlns:inkscape="http://www.inkscape.org/namespaces/inkscape"
   xmlns:sodipodi="http://sodipodi.sourceforge.net/DTD/sodipodi-0.dtd"
   xmlns:xlink="http://www.w3.org/1999/xlink"
   xmlns="http://www.w3.org/2000/svg"
   xmlns:svg="http://www.w3.org/2000/svg">
  <defs
     id="defs1">
    <linearGradient
       id="linearGradient4"
       inkscape:collect="always">
      <stop
         style="stop-color:#31373d;stop-opacity:1;"
         offset="0.5"
         id="stop3" />
      <stop
         style="stop-color:#0e1319;stop-opacity:1;"
         offset="1"
         id="stop4" />
    </linearGradient>
    <linearGradient
       id="linearGradient1"
       inkscape:collect="always">
      <stop
         style="stop-color:#31373d;stop-opacity:1;"
         offset="0.5"
         id="stop1" />
      <stop
         style="stop-color:#0e1319;stop-opacity:1;"
         offset="1"
         id="stop2" />
    </linearGradient>
    <linearGradient
       inkscape:collect="always"
       xlink:href="#linearGradient4"
       id="linearGradient2"
       x1="18"
       y1="0"
       x2="18"
       y2="36"
       gradientUnits="userSpaceOnUse" />
    <linearGradient
       inkscape:collect="always"
       xlink:href="#linearGradient1"
       id="linearGradient3"
       gradientUnits="userSpaceOnUse"
       x1="18"
       y1="0"
       x2="18"
       y2="36"
       gradientTransform="matrix(0.66666667,0,0,0.66666667,-30,-30)" />
  </defs>
  <sodipodi:namedview
     id="namedview1"
     pagecolor="#ffffff"
     bordercolor="#000000"
     borderopacity="0.25"
     inkscape:showpageshadow="2"
     inkscape:pageopacity="0.0"
     inkscape:pagecheckerboard="0"
     inkscape:deskcolor="#d1d1d1"
     showguides="false"
     showgrid="true"
     inkscape:zoom="21.586399"
     inkscape:cx="10.469555"
     inkscape:cy="21.240226"
     inkscape:window-width="2560"
     inkscape:window-height="1334"
     inkscape:window-x="-11"
     inkscape:window-y="-11"
     inkscape:window-maximized="1"
     inkscape:current-layer="svg1">
    <sodipodi:guide
       position="17.983621,23.421292"
       orientation="1,0"
       id="guide2"
       inkscape:locked="false" />
    <inkscape:grid
       id="grid2"
       units="px"
       originx="0"
       originy="0"
       spacingx="1"
       spacingy="1"
       empcolor="#0099e5"
       empopacity="0.30196078"
       color="#0099e5"
       opacity="0.14901961"
       empspacing="5"
       dotted="false"
       gridanglex="30"
       gridanglez="30"
       visible="true" />
  </sodipodi:namedview>
  <circle
     fill="#DD2E44"
     cx="18"
     cy="18"
     r="18"
     id="circle1"
     style="fill:url(#linearGradient2)" />
  <circle
     fill="#DD2E44"
     cx="-18"
     cy="-18"
     id="circle1-3"
     style="fill:url(#linearGradient3);stroke-width:0.666667"
     r="12"
     transform="scale(-1)" />
  <g
     id="g23"
     transform="matrix(0.91016992,0,0,0.91016992,1.6169414,1.5558514)">
    <g
       id="g22"
       transform="matrix(0.54062706,0,0,0.54062706,-2.5222032,11.302491)"
       style="fill:none;stroke:#000000;stroke-width:1.5556;stroke-dasharray:none;stroke-opacity:1">
      <path
         fill="#f4900c"
         d="M 34.134,10.336 26.71,0.855 22.988,10.336 Z"
         id="path5"
         style="fill:none;stroke:#000000;stroke-width:1.5556;stroke-dasharray:none;stroke-opacity:1" />
      <path
         fill="#f4900c"
         d="M 37.898,-1.205 31.335,11.184 H 44.46 Z"
         id="path6"
         style="fill:none;stroke:#000000;stroke-width:1.5556;stroke-dasharray:none;stroke-opacity:1" />
      <path
         fill="#f4900c"
         d="m 41.786,10.336 7.424,-9.481 3.722,9.481 z"
         id="path7"
         style="fill:none;stroke:#000000;stroke-width:1.5556;stroke-dasharray:none;stroke-opacity:1" />
      <path
         fill="#ffcc4d"
         d="M 48.629,8.451 43.847,-3.216 37.967,8.452 37.96,8.455 37.953,8.451 32.073,-3.217 27.291,8.451 C 24.157,4.094 21.24,1.303 21.24,1.303 c 0,0 1.72,12.708 1.72,24.958 h 30 c 0,-12.25 1.72,-24.958 1.72,-24.958 0,0 -2.917,2.791 -6.051,7.148 z"
         id="path9"
         style="fill:none;stroke:#000000;stroke-width:1.5556;stroke-linejoin:bevel;stroke-dasharray:none;stroke-opacity:1" />
      <path
         id="path10"
         style="fill:none;stroke:#000000;stroke-width:1.5556;stroke-dasharray:none;stroke-opacity:1"
         d="m 41.605,15.261 a 3.688,3.688 0 0 1 -3.688,3.688 3.688,3.688 0 0 1 -3.688,-3.688 3.688,3.688 0 0 1 3.688,-3.688 3.688,3.688 0 0 1 3.688,3.688 z" />
      <path
         id="path11"
         style="fill:none;stroke:#000000;stroke-width:1.5556;stroke-dasharray:none;stroke-opacity:1"
         d="m 48.835,15.261 a 2.4119999,2.4119999 0 0 1 -2.412,2.412 2.4119999,2.4119999 0 0 1 -2.412,-2.412 2.4119999,2.4119999 0 0 1 2.412,-2.412 2.4119999,2.4119999 0 0 1 2.412,2.412 z" />
      <path
         id="path12"
         style="fill:none;stroke:#000000;stroke-width:1.5556;stroke-dasharray:none;stroke-opacity:1"
         d="m 54.798,15.261 a 1.9859999,1.9859999 0 0 1 -1.986,1.986 1.9859999,1.9859999 0 0 1 -1.986,-1.986 1.9859999,1.9859999 0 0 1 1.986,-1.986 1.9859999,1.9859999 0 0 1 1.986,1.986 z" />
      <path
         id="path13"
         style="fill:none;stroke:#000000;stroke-width:1.5556;stroke-dasharray:none;stroke-opacity:1"
         d="m 31.822,15.261 a 2.4119999,2.4119999 0 0 1 -2.412,2.412 2.4119999,2.4119999 0 0 1 -2.412,-2.412 2.4119999,2.4119999 0 0 1 2.412,-2.412 2.4119999,2.4119999 0 0 1 2.412,2.412 z" />
      <path
         id="path14"
         style="fill:none;stroke:#000000;stroke-width:1.5556;stroke-dasharray:none;stroke-opacity:1"
         d="m 25.007,15.261 a 1.9859999,1.9859999 0 0 1 -1.986,1.986 1.9859999,1.9859999 0 0 1 -1.986,-1.986 1.9859999,1.9859999 0 0 1 1.986,-1.986 1.9859999,1.9859999 0 0 1 1.986,1.986 z" />
      <path
         fill="#ffac33"
         d="m 52.96,27.261 h -30 c -0.552,0 -1,-0.447 -1,-1 0,-0.553 0.448,-1 1,-1 h 30 c 0.553,0 1,0.447 1,1 0,0.553 -0.447,1 -1,1 z m 0,-3.486 h -30 c -0.552,0 -1,-0.447 -1,-1 0,-0.553 0.448,-1 1,-1 h 30 c 0.553,0 1,0.447 1,1 0,0.553 -0.447,1 -1,1 z"
         id="path15"
         style="fill:none;stroke:#000000;stroke-width:1.5556;stroke-dasharray:none;stroke-opacity:1" />
      <path
         id="path16"
         style="fill:none;stroke:#000000;stroke-width:1.5556;stroke-dasharray:none;stroke-opacity:1"
         d="M 22.814,1.3029999 A 1.4069999,1.4069999 0 0 1 21.407,2.7099998 1.4069999,1.4069999 0 0 1 20,1.3029999 1.4069999,1.4069999 0 0 1 21.407,-0.10400009 1.4069999,1.4069999 0 0 1 22.814,1.3029999 Z" />
      <path
         id="path17"
         style="fill:none;stroke:#000000;stroke-width:1.5556;stroke-dasharray:none;stroke-opacity:1"
         d="m 27.901999,0.85499984 a 1.192,1.192 0 0 1 -1.192,1.19200006 1.192,1.192 0 0 1 -1.192,-1.19200006 1.192,1.192 0 0 1 1.192,-1.19200003 1.192,1.192 0 0 1 1.192,1.19200003 z" />
      <path
         id="path18"
         style="fill:none;stroke:#000000;stroke-width:1.5556;stroke-dasharray:none;stroke-opacity:1"
         d="m 33.856998,-3.2160001 a 1.784,1.784 0 0 1 -1.784,1.7840001 1.784,1.784 0 0 1 -1.784,-1.7840001 1.784,1.784 0 0 1 1.784,-1.784 1.784,1.784 0 0 1 1.784,1.784 z" />
      <path
         id="path19"
         style="fill:none;stroke:#000000;stroke-width:1.5556;stroke-dasharray:none;stroke-opacity:1"
         d="M 55.92,1.3029999 A 1.4069999,1.4069999 0 0 1 54.513,2.7099998 1.4069999,1.4069999 0 0 1 53.106001,1.3029999 1.4069999,1.4069999 0 0 1 54.513,-0.10400009 1.4069999,1.4069999 0 0 1 55.92,1.3029999 Z" />
      <path
         id="path20"
         style="fill:none;stroke:#000000;stroke-width:1.5556;stroke-dasharray:none;stroke-opacity:1"
         d="m 50.401999,0.85499984 a 1.192,1.192 0 0 1 -1.192,1.19200006 1.192,1.192 0 0 1 -1.192,-1.19200006 1.192,1.192 0 0 1 1.192,-1.19200003 1.192,1.192 0 0 1 1.192,1.19200003 z" />
      <path
         id="path21"
         style="fill:none;stroke:#000000;stroke-width:1.5556;stroke-dasharray:none;stroke-opacity:1"
         d="M 45.631,-3.2160001 A 1.784,1.784 0 0 1 43.847,-1.432 a 1.784,1.784 0 0 1 -1.784,-1.7840001 1.784,1.784 0 0 1 1.784,-1.784 1.784,1.784 0 0 1 1.784,1.784 z" />
      <path
         id="path22"
         style="fill:none;stroke:#000000;stroke-width:1.5556;stroke-dasharray:none;stroke-opacity:1"
         d="m 39.681999,-1.205 a 1.784,1.784 0 0 1 -1.784,1.784 1.784,1.784 0 0 1 -1.784,-1.784 1.784,1.784 0 0 1 1.784,-1.7840001 1.784,1.784 0 0 1 1.784,1.7840001 z" />
    </g>
    <g
       id="g2"
       transform="matrix(0.54062706,0,0,0.54062706,-2.5222032,11.302491)">
      <path
         fill="#f4900c"
         d="M 34.134,10.336 26.71,0.855 22.988,10.336 Z"
         id="path1" />
      <path
         fill="#f4900c"
         d="M 37.898,-1.205 31.335,11.184 H 44.46 Z"
         id="path2" />
      <path
         fill="#f4900c"
         d="m 41.786,10.336 7.424,-9.481 3.722,9.481 z"
         id="path3" />
      <path
         fill="#ffcc4d"
         d="M 48.629,8.451 43.847,-3.216 37.967,8.452 37.96,8.455 37.953,8.451 32.073,-3.217 27.291,8.451 C 24.157,4.094 21.24,1.303 21.24,1.303 c 0,0 1.72,12.708 1.72,24.958 h 30 c 0,-12.25 1.72,-24.958 1.72,-24.958 0,0 -2.917,2.791 -6.051,7.148 z"
         id="path4" />
      <path
         id="circle4"
         style="fill:#5c913b"
         d="m 41.605,15.261 a 3.688,3.688 0 0 1 -3.688,3.688 3.688,3.688 0 0 1 -3.688,-3.688 3.688,3.688 0 0 1 3.688,-3.688 3.688,3.688 0 0 1 3.688,3.688 z" />
      <path
         id="circle5"
         style="fill:#981ceb"
         d="m 48.835,15.261 a 2.4119999,2.4119999 0 0 1 -2.412,2.412 2.4119999,2.4119999 0 0 1 -2.412,-2.412 2.4119999,2.4119999 0 0 1 2.412,-2.412 2.4119999,2.4119999 0 0 1 2.412,2.412 z" />
      <path
         id="circle6"
         style="fill:#dd2e44"
         d="m 54.798,15.261 a 1.9859999,1.9859999 0 0 1 -1.986,1.986 1.9859999,1.9859999 0 0 1 -1.986,-1.986 1.9859999,1.9859999 0 0 1 1.986,-1.986 1.9859999,1.9859999 0 0 1 1.986,1.986 z" />
      <path
         id="circle7"
         style="fill:#981ceb"
         d="m 31.822,15.261 a 2.4119999,2.4119999 0 0 1 -2.412,2.412 2.4119999,2.4119999 0 0 1 -2.412,-2.412 2.4119999,2.4119999 0 0 1 2.412,-2.412 2.4119999,2.4119999 0 0 1 2.412,2.412 z" />
      <path
         id="circle8"
         style="fill:#dd2e44"
         d="m 25.007,15.261 a 1.9859999,1.9859999 0 0 1 -1.986,1.986 1.9859999,1.9859999 0 0 1 -1.986,-1.986 1.9859999,1.9859999 0 0 1 1.986,-1.986 1.9859999,1.9859999 0 0 1 1.986,1.986 z" />
      <path
         fill="#ffac33"
         d="m 52.96,27.261 h -30 c -0.552,0 -1,-0.447 -1,-1 0,-0.553 0.448,-1 1,-1 h 30 c 0.553,0 1,0.447 1,1 0,0.553 -0.447,1 -1,1 z m 0,-3.486 h -30 c -0.552,0 -1,-0.447 -1,-1 0,-0.553 0.448,-1 1,-1 h 30 c 0.553,0 1,0.447 1,1 0,0.553 -0.447,1 -1,1 z"
         id="path8" />
      <path
         id="circle9"
         style="fill:#ffcc4d"
         d="M 22.814,1.3029999 A 1.4069999,1.4069999 0 0 1 21.407,2.7099998 1.4069999,1.4069999 0 0 1 20,1.3029999 1.4069999,1.4069999 0 0 1 21.407,-0.10400009 1.4069999,1.4069999 0 0 1 22.814,1.3029999 Z" />
      <path
         id="circle10"
         style="fill:#f4900c"
         d="m 27.901999,0.85499984 a 1.192,1.192 0 0 1 -1.192,1.19200006 1.192,1.192 0 0 1 -1.192,-1.19200006 1.192,1.192 0 0 1 1.192,-1.19200003 1.192,1.192 0 0 1 1.192,1.19200003 z" />
      <path
         id="circle11"
         style="fill:#ffcc4d"
         d="m 33.856998,-3.2160001 a 1.784,1.784 0 0 1 -1.784,1.7840001 1.784,1.784 0 0 1 -1.784,-1.7840001 1.784,1.784 0 0 1 1.784,-1.784 1.784,1.784 0 0 1 1.784,1.784 z" />
      <path
         id="circle12"
         style="fill:#ffcc4d"
         d="M 55.92,1.3029999 A 1.4069999,1.4069999 0 0 1 54.513,2.7099998 1.4069999,1.4069999 0 0 1 53.106001,1.3029999 1.4069999,1.4069999 0 0 1 54.513,-0.10400009 1.4069999,1.4069999 0 0 1 55.92,1.3029999 Z" />
      <path
         id="circle13"
         style="fill:#f4900c"
         d="m 50.401999,0.85499984 a 1.192,1.192 0 0 1 -1.192,1.19200006 1.192,1.192 0 0 1 -1.192,-1.19200006 1.192,1.192 0 0 1 1.192,-1.19200003 1.192,1.192 0 0 1 1.192,1.19200003 z" />
      <path
         id="circle14"
         style="fill:#ffcc4d"
         d="M 45.631,-3.2160001 A 1.784,1.784 0 0 1 43.847,-1.432 a 1.784,1.784 0 0 1 -1.784,-1.7840001 1.784,1.784 0 0 1 1.784,-1.784 1.784,1.784 0 0 1 1.784,1.784 z" />
      <path
         id="circle15"
         style="fill:#f4900c"
         d="m 39.681999,-1.205 a 1.784,1.784 0 0 1 -1.784,1.784 1.784,1.784 0 0 1 -1.784,-1.784 1.784,1.784 0 0 1 1.784,-1.7840001 1.784,1.784 0 0 1 1.784,1.7840001 z" />
    </g>
  </g>
</svg>
